<svg width="83" height="16" viewBox="0 0 83 16" fill="none" xmlns="http://www.w3.org/2000/svg">
<path d="M5.71875 5.56537C5.6733 5.16197 5.4858 4.84947 5.15625 4.62787C4.82671 4.40344 4.41194 4.29123 3.91194 4.29123C3.55398 4.29123 3.24432 4.34804 2.98296 4.46168C2.72159 4.57248 2.51847 4.72589 2.37358 4.92191C2.23154 5.11509 2.16051 5.33526 2.16051 5.58242C2.16051 5.78981 2.20881 5.96878 2.3054 6.11935C2.40483 6.26992 2.53409 6.39634 2.69319 6.49861C2.85512 6.59804 3.02841 6.68185 3.21307 6.75003C3.39773 6.81537 3.57529 6.86935 3.74574 6.91197L4.59801 7.13356C4.87642 7.20174 5.16194 7.29407 5.45455 7.41054C5.74716 7.52702 6.01847 7.68043 6.26847 7.87077C6.51847 8.06111 6.72017 8.29691 6.87358 8.57816C7.02983 8.85941 7.10796 9.19606 7.10796 9.5881C7.10796 10.0824 6.98012 10.5213 6.72444 10.9049C6.47159 11.2884 6.1037 11.5909 5.62074 11.8125C5.14063 12.0341 4.55966 12.1449 3.87784 12.1449C3.22444 12.1449 2.65909 12.0412 2.18182 11.8338C1.70455 11.6265 1.33097 11.3324 1.06108 10.9517C0.791197 10.5682 0.642049 10.1137 0.61364 9.5881H1.93466C1.96023 9.90344 2.0625 10.1662 2.24148 10.3765C2.4233 10.5838 2.65483 10.7387 2.93608 10.8409C3.22017 10.9404 3.53125 10.9901 3.86932 10.9901C4.24148 10.9901 4.57245 10.9319 4.86222 10.8154C5.15483 10.6961 5.38495 10.5313 5.55256 10.3211C5.72017 10.108 5.80398 9.85941 5.80398 9.57532C5.80398 9.31679 5.73012 9.10515 5.58239 8.94037C5.4375 8.7756 5.24006 8.63924 4.99006 8.53128C4.7429 8.42333 4.46307 8.32816 4.15057 8.24577L3.11932 7.96452C2.42046 7.77418 1.86648 7.49435 1.45739 7.12503C1.05114 6.75572 0.848015 6.26708 0.848015 5.65912C0.848015 5.15628 0.984378 4.71736 1.25711 4.34236C1.52983 3.96736 1.89915 3.67617 2.36506 3.46878C2.83097 3.25856 3.35654 3.15344 3.94176 3.15344C4.53267 3.15344 5.05398 3.25714 5.50569 3.46452C5.96023 3.67191 6.31819 3.95742 6.57955 4.32106C6.84091 4.68185 6.97728 5.09662 6.98864 5.56537H5.71875Z" fill="#3730A3"/>
<path d="M11.4002 12.1321C10.7553 12.1321 10.1999 11.9944 9.73402 11.7188C9.27096 11.4404 8.913 11.0497 8.66016 10.5469C8.41016 10.0412 8.28516 9.4489 8.28516 8.76992C8.28516 8.09946 8.41016 7.50856 8.66016 6.99719C8.913 6.48583 9.26527 6.08668 9.71698 5.79975C10.1715 5.51282 10.7028 5.36935 11.3107 5.36935C11.68 5.36935 12.038 5.43043 12.3846 5.55259C12.7312 5.67475 13.0423 5.86651 13.3178 6.12787C13.5934 6.38924 13.8107 6.72873 13.9698 7.14634C14.1289 7.56111 14.2085 8.06537 14.2085 8.65912V9.11083H9.00533V8.15628H12.9599C12.9599 7.82106 12.8917 7.52418 12.7553 7.26566C12.619 7.00429 12.4272 6.79833 12.18 6.64776C11.9357 6.49719 11.6488 6.42191 11.3193 6.42191C10.9613 6.42191 10.6488 6.50998 10.3818 6.68611C10.1175 6.85941 9.913 7.08668 9.76812 7.36793C9.62607 7.64634 9.55505 7.9489 9.55505 8.2756V9.02134C9.55505 9.45884 9.63175 9.831 9.78516 10.1378C9.94141 10.4446 10.1587 10.679 10.4371 10.8409C10.7156 11 11.0408 11.0796 11.413 11.0796C11.6545 11.0796 11.8746 11.0455 12.0735 10.9773C12.2724 10.9063 12.4443 10.8012 12.5891 10.662C12.734 10.5228 12.8448 10.3509 12.9215 10.1463L14.1275 10.3637C14.0309 10.7188 13.8576 11.0299 13.6076 11.2969C13.3604 11.5611 13.0494 11.7671 12.6744 11.9148C12.3022 12.0597 11.8775 12.1321 11.4002 12.1321Z" fill="#3730A3"/>
<path d="M18.4432 12.1321C17.7983 12.1321 17.2429 11.9944 16.777 11.7188C16.3139 11.4404 15.956 11.0497 15.7031 10.5469C15.4531 10.0412 15.3281 9.4489 15.3281 8.76992C15.3281 8.09946 15.4531 7.50856 15.7031 6.99719C15.956 6.48583 16.3082 6.08668 16.7599 5.79975C17.2145 5.51282 17.7457 5.36935 18.3537 5.36935C18.723 5.36935 19.081 5.43043 19.4276 5.55259C19.7742 5.67475 20.0852 5.86651 20.3608 6.12787C20.6364 6.38924 20.8537 6.72873 21.0128 7.14634C21.1719 7.56111 21.2514 8.06537 21.2514 8.65912V9.11083H16.0483V8.15628H20.0028C20.0028 7.82106 19.9347 7.52418 19.7983 7.26566C19.6619 7.00429 19.4702 6.79833 19.223 6.64776C18.9787 6.49719 18.6918 6.42191 18.3622 6.42191C18.0043 6.42191 17.6918 6.50998 17.4247 6.68611C17.1605 6.85941 16.956 7.08668 16.8111 7.36793C16.669 7.64634 16.598 7.9489 16.598 8.2756V9.02134C16.598 9.45884 16.6747 9.831 16.8281 10.1378C16.9844 10.4446 17.2017 10.679 17.4801 10.8409C17.7585 11 18.0838 11.0796 18.456 11.0796C18.6974 11.0796 18.9176 11.0455 19.1165 10.9773C19.3153 10.9063 19.4872 10.8012 19.6321 10.662C19.777 10.5228 19.8878 10.3509 19.9645 10.1463L21.1705 10.3637C21.0739 10.7188 20.9006 11.0299 20.6506 11.2969C20.4034 11.5611 20.0923 11.7671 19.7173 11.9148C19.3452 12.0597 18.9205 12.1321 18.4432 12.1321Z" fill="#3730A3"/>
<path d="M27.652 12L25.2315 3.27276H26.6165L28.3168 10.0313H28.3977L30.1662 3.27276H31.5384L33.3068 10.0355H33.3878L35.0838 3.27276H36.473L34.0483 12H32.723L30.8864 5.4631H30.8182L28.9815 12H27.652Z" fill="#3730A3"/>
<path d="M39.684 12.1321C39.0703 12.1321 38.5348 11.9915 38.0774 11.7103C37.62 11.429 37.2649 11.0355 37.0121 10.5299C36.7592 10.0242 36.6328 9.43327 36.6328 8.75714C36.6328 8.07816 36.7592 7.48441 37.0121 6.97589C37.2649 6.46736 37.62 6.07248 38.0774 5.79123C38.5348 5.50998 39.0703 5.36935 39.684 5.36935C40.2976 5.36935 40.8331 5.50998 41.2905 5.79123C41.7479 6.07248 42.103 6.46736 42.3558 6.97589C42.6087 7.48441 42.7351 8.07816 42.7351 8.75714C42.7351 9.43327 42.6087 10.0242 42.3558 10.5299C42.103 11.0355 41.7479 11.429 41.2905 11.7103C40.8331 11.9915 40.2976 12.1321 39.684 12.1321ZM39.6882 11.0625C40.0859 11.0625 40.4155 10.9574 40.6768 10.7472C40.9382 10.537 41.1314 10.2571 41.2564 9.9077C41.3842 9.55827 41.4482 9.17333 41.4482 8.75287C41.4482 8.33526 41.3842 7.95174 41.2564 7.60231C41.1314 7.25003 40.9382 6.96736 40.6768 6.75429C40.4155 6.54123 40.0859 6.43469 39.6882 6.43469C39.2876 6.43469 38.9553 6.54123 38.6911 6.75429C38.4297 6.96736 38.2351 7.25003 38.1072 7.60231C37.9822 7.95174 37.9197 8.33526 37.9197 8.75287C37.9197 9.17333 37.9822 9.55827 38.1072 9.9077C38.2351 10.2571 38.4297 10.537 38.6911 10.7472C38.9553 10.9574 39.2876 11.0625 39.6882 11.0625Z" fill="#3730A3"/>
<path d="M44.1573 12V5.45458H45.3889V6.49435H45.457C45.5764 6.14208 45.7866 5.86509 46.0877 5.66339C46.3917 5.45884 46.7354 5.35657 47.119 5.35657C47.1985 5.35657 47.2923 5.35941 47.4002 5.36509C47.511 5.37077 47.5977 5.37787 47.6602 5.3864V6.60515C47.609 6.59094 47.5181 6.57532 47.3874 6.55827C47.2568 6.53839 47.1261 6.52844 46.9954 6.52844C46.6943 6.52844 46.4258 6.59236 46.19 6.7202C45.957 6.8452 45.7724 7.01992 45.636 7.24435C45.4996 7.46594 45.4315 7.71878 45.4315 8.00287V12H44.1573Z" fill="#3730A3"/>
<path d="M49.9347 9.77986L49.9261 8.22447H50.1477L52.7557 5.45458H54.2813L51.3068 8.60799H51.1065L49.9347 9.77986ZM48.7628 12V3.27276H50.0369V12H48.7628ZM52.8963 12L50.5526 8.88924L51.4304 7.99861L54.4602 12H52.8963Z" fill="#3730A3"/>
<path d="M60.3473 7.05259L59.1925 7.25714C59.1442 7.10941 59.0675 6.96878 58.9624 6.83526C58.8601 6.70174 58.7209 6.59236 58.5448 6.50714C58.3686 6.42191 58.1484 6.37929 57.8842 6.37929C57.5234 6.37929 57.2223 6.46026 56.9808 6.62219C56.7393 6.78128 56.6186 6.98725 56.6186 7.24009C56.6186 7.45884 56.6996 7.63498 56.8615 7.7685C57.0234 7.90202 57.2848 8.0114 57.6456 8.09662L58.6854 8.33526C59.2876 8.47447 59.7365 8.68895 60.032 8.97873C60.3274 9.2685 60.4751 9.64492 60.4751 10.108C60.4751 10.5 60.3615 10.8495 60.1342 11.1563C59.9098 11.4603 59.5959 11.6989 59.1925 11.8722C58.7919 12.0455 58.3274 12.1321 57.799 12.1321C57.0661 12.1321 56.468 11.9759 56.005 11.6634C55.5419 11.348 55.2578 10.9006 55.1527 10.3211L56.3842 10.1336C56.4609 10.4546 56.6186 10.6975 56.8572 10.8622C57.0959 11.0242 57.407 11.1051 57.7905 11.1051C58.2081 11.1051 58.5419 11.0185 58.7919 10.8452C59.0419 10.6691 59.1669 10.4546 59.1669 10.2017C59.1669 9.99719 59.0902 9.82532 58.9368 9.68611C58.7862 9.54691 58.5547 9.4418 58.2422 9.37077L57.1342 9.12787C56.5234 8.98867 56.0717 8.76708 55.7791 8.4631C55.4893 8.15912 55.3445 7.77418 55.3445 7.30827C55.3445 6.92191 55.4524 6.58384 55.6683 6.29407C55.8842 6.0043 56.1825 5.77844 56.5632 5.61651C56.9439 5.45174 57.38 5.36935 57.8715 5.36935C58.5788 5.36935 59.1357 5.52276 59.5419 5.82958C59.9482 6.13356 60.2166 6.54123 60.3473 7.05259Z" fill="#3730A3"/>
<path fill-rule="evenodd" clip-rule="evenodd" d="M69.8333 8C69.8333 7.72386 70.0572 7.5 70.3333 7.5H79.6667C79.9428 7.5 80.1667 7.72386 80.1667 8C80.1667 8.27614 79.9428 8.5 79.6667 8.5H70.3333C70.0572 8.5 69.8333 8.27614 69.8333 8Z" fill="#3730A3"/>
<path fill-rule="evenodd" clip-rule="evenodd" d="M74.6464 2.97982C74.8417 2.78456 75.1583 2.78456 75.3536 2.97982L80.0202 7.64649C80.2155 7.84175 80.2155 8.15833 80.0202 8.35359L75.3536 13.0203C75.1583 13.2155 74.8417 13.2155 74.6464 13.0203C74.4512 12.825 74.4512 12.5084 74.6464 12.3132L78.9596 8.00004L74.6464 3.68693C74.4512 3.49167 74.4512 3.17508 74.6464 2.97982Z" fill="#3730A3"/>
</svg>
